<svg id="Layer_1" viewBox="0 0 512 512" xmlns="http://www.w3.org/2000/svg" data-name="Layer 1"><g fill="#e2484d" fill-rule="evenodd"><path d="m392.621 327.327a5.76 5.76 0 1 1 11.519 0v113.481a5.76 5.76 0 1 1 -11.519 0zm49.379 3.755a5.757 5.757 0 1 1 11.429 1.395l-13.56 109.585a5.757 5.757 0 0 1 -11.43-1.4zm-98.665 1.395a5.757 5.757 0 0 1 11.43-1.395l13.561 109.585a5.757 5.757 0 0 1 -11.43 1.4l-13.563-109.59zm10.455 133.641h88.38a14.539 14.539 0 0 0 14.571-12.868l18.613-150.415h-154.748l18.613 150.415a14.541 14.541 0 0 0 14.571 12.868z"/><path d="m92.959 169.318a100.593 100.593 0 0 0 89.591 69.419v-152.722h-34.373a5.759 5.759 0 0 1 -5.76-5.759v-34.374h-126.412v220.979h96a111.882 111.882 0 0 1 -30.29-97.1c1.03-6.139 9.751-6.435 11.248-.446zm-33.449-21.179a5.76 5.76 0 1 1 0-11.52h79.535a5.76 5.76 0 1 1 0 11.52zm0-29.253a5.76 5.76 0 0 1 0-11.52h79.535a5.76 5.76 0 1 1 0 11.52z"/><path d="m122.7 228.921a112.642 112.642 0 0 1 -30.861-34.185c3.436 56.782 53.483 99.527 110.368 93.95q4.674-.458 9.5-1.409a5.753 5.753 0 0 1 7.154 5.59v9.369l56.322-35.186-56.322-35.186-.006 10.008a5.755 5.755 0 0 1 -4.449 5.6 111.99 111.99 0 0 1 -91.706-18.551z"/><path d="m174.406 74.496-20.47-20.469v20.469z"/><path d="m424.576 221.386 1.424-6.631a6.811 6.811 0 0 0 -5.2-8.08l-19.172-4.113a6.812 6.812 0 0 0 -8.08 5.2l-1.428 6.658z"/><path d="m486.932 246.523-161.969-34.744a11.518 11.518 0 0 0 -13.652 8.806l-2.411 11.246 184.434 39.563 2.407-11.219a11.519 11.519 0 0 0 -8.809-13.652z"/></g></svg>