<svg id="Layer_1" enable-background="new 0 0 68 68" height="512" viewBox="0 0 68 68" width="512" xmlns="http://www.w3.org/2000/svg"><g><g><g><g><g><g><path d="m65.9958878 36.3986244c0 3.1873894-1.2894287 6.074276-3.3776131 8.1588364-2.0881844 2.0919914-4.9713097 3.3812828-8.1587448 3.3812828h-40.9231234c-6.3710623 0-11.5364065-5.1653442-11.5364065-11.5401192 0-3.1836739 1.2932398-6.0705605 3.3776155-8.1588364 1.6013551-1.5974102 3.6743093-2.7308807 5.9907002-3.1684456-.0113754-.1938953-.0189905-.3916912-.0189905-.5894871 0-5.1464005 4.1725588-9.3188658 9.3188667-9.3188658 1.0193443 0 2.0007076.1636229 2.921154.4717379 2.4381313-5.2756643 7.7783813-8.9347897 13.970686-8.9347897 8.4973183 0 15.3856201 6.8883023 15.3856201 15.3857136 0 .9470043-.0874786 1.8750648-.2510071 2.7765675h1.7648849c6.3710633.0000001 11.536358 5.1653443 11.536358 11.5364056z" fill="#e5e8ef"/></g><g><path d="m66 36.4028206c0 3.1794815-1.2899551 6.0694351-3.3799095 8.1591415-2.0897102 2.0901985-4.9694061 3.3796654-8.1593895 3.3796654h-3.9997406c3.1899796 0 6.0696754-1.2894669 8.1593857-3.3796654 2.0899544-2.0897064 3.3799095-4.97966 3.3799095-8.1591415 0-6.3799629-5.16959-11.539299-11.5392952-11.539299h-1.7699089c.1701584-.9003334.2499847-1.8299599.2499847-2.7800941 0-7.8295765-5.8394661-14.2788696-13.3990402-15.2490215.6598701-.089838 1.3297462-.1298742 2.0198898-.1298742 8.4994545 0 15.3788948 6.8794403 15.3788948 15.3788958 0 .9501343-.0798302 1.8797607-.2499847 2.7800941h1.7699051c6.369709-.0000001 11.539299 5.159336 11.539299 11.5392989z" fill="#cdd4df"/></g></g><g opacity=".28"><path d="m21.6498756 24.1146889c-1.6699219 1.6699219-3.8200684 2.2294922-4.8000488 1.2597656-.9699707-.9799805-.4099121-3.1298828 1.2600098-4.7998047s3.8200684-2.2304688 4.8000488-1.2602539c.9699707.9799805.4099121 3.1201172-1.2600098 4.800293z" fill="#fff"/></g></g></g></g><g><path d="m47.3525963 47.9477425c0 7.3757935-5.9731483 13.3489418-13.3486328 13.3489418-7.3757915 0-13.3614769-5.9731483-13.3614769-13.3489418s5.9856853-13.3611679 13.3614769-13.3611679c7.3754844 0 13.3486328 5.9853782 13.3486328 13.3611679z" fill="#5cbeff"/></g><g><path d="m47.3525238 47.9499664c0 7.3701172-5.9699707 13.3500977-13.3498535 13.3500977-4.3200703 0-8.1701679-2.0600586-10.6101093-5.2402344 2.2399902 1.7202148 5.0600586 2.7402344 8.1101074 2.7402344 7.3798847 0 13.3498554-5.9799805 13.3498554-13.3500977 0-3.0498047-1.0200195-5.8696289-2.7399902-8.1196289 3.1899414 2.4497071 5.2399902 6.2900391 5.2399902 10.6196289z" fill="#079cff"/></g><g><g><path d="m38.8661156 52.8097725c-.5680237.5680237-1.482975.5782967-2.0615273.010273l-2.8082809-2.8185539-2.8190632 2.8082809c-.5677681.5782967-1.482975.5782967-2.0507431 0-.5680256-.5577545-.5788097-1.4832306-.0107861-2.0615273l2.8190651-2.8082809-2.798008-2.8087921c-.5782967-.5782967-.5782967-1.4935036-.0102711-2.0615311.5677681-.5680237 1.4935036-.5782928 2.0615273 0l2.808279 2.8082809 2.8082809-2.797493c.5785522-.5788116 1.4935036-.5788116 2.0615273-.010788.5680275.5680275.5785561 1.4935036 0 2.0615311l-2.8082771 2.8087921 2.8082771 2.8185501c.5785561.5680276.5785561 1.4832345.0000001 2.0512582z" fill="#fff"/></g></g></g></svg>